<?xml version="1.0" standalone="no"?><svg xmlns="http://www.w3.org/2000/svg" viewBox="0 0 1440 320"><path fill="#0099ff" fill-opacity="1" d="M0,32L24,64C48,96,96,160,144,197.3C192,235,240,245,288,250.7C336,256,384,256,432,256C480,256,528,256,576,240C624,224,672,192,720,197.3C768,203,816,245,864,272C912,299,960,309,1008,304C1056,299,1104,277,1152,272C1200,267,1248,277,1296,272C1344,267,1392,245,1416,234.7L1440,224L1440,0L1416,0C1392,0,1344,0,1296,0C1248,0,1200,0,1152,0C1104,0,1056,0,1008,0C960,0,912,0,864,0C816,0,768,0,720,0C672,0,624,0,576,0C528,0,480,0,432,0C384,0,336,0,288,0C240,0,192,0,144,0C96,0,48,0,24,0L0,0Z"></path></svg>