<?xml version="1.0" standalone="no"?><svg xmlns="http://www.w3.org/2000/svg" viewBox="0 0 1440 320"><path fill="#0099ff" fill-opacity="1" d="M0,32L24,64C48,96,96,160,144,197.3C192,235,240,245,288,250.7C336,256,384,256,432,256C480,256,528,256,576,240C624,224,672,192,720,197.3C768,203,816,245,864,272C912,299,960,309,1008,304C1056,299,1104,277,1152,272C1200,267,1248,277,1296,272C1344,267,1392,245,1416,234.7L1440,224L1440,320L1416,320C1392,320,1344,320,1296,320C1248,320,1200,320,1152,320C1104,320,1056,320,1008,320C960,320,912,320,864,320C816,320,768,320,720,320C672,320,624,320,576,320C528,320,480,320,432,320C384,320,336,320,288,320C240,320,192,320,144,320C96,320,48,320,24,320L0,320Z"></path></svg>