<?xml version="1.0" standalone="no"?><svg xmlns="http://www.w3.org/2000/svg" viewBox="0 0 1440 320"><path fill="#0099ff" fill-opacity="1" d="M0,288L30,272C60,256,120,224,180,192C240,160,300,128,360,112C420,96,480,96,540,85.3C600,75,660,53,720,42.7C780,32,840,32,900,26.7C960,21,1020,11,1080,48C1140,85,1200,171,1260,218.7C1320,267,1380,277,1410,282.7L1440,288L1440,320L1410,320C1380,320,1320,320,1260,320C1200,320,1140,320,1080,320C1020,320,960,320,900,320C840,320,780,320,720,320C660,320,600,320,540,320C480,320,420,320,360,320C300,320,240,320,180,320C120,320,60,320,30,320L0,320Z"></path></svg>