<svg xmlns="http://www.w3.org/2000/svg" viewBox="0 0 2256 1283.33"><defs><style>.cfe454b2-b1ec-4b7e-826a-682bf576c185{fill:#6f3fdc}.\31 592f216-7564-4a6d-817f-4693ddde3a5b,.\35 8a37d0e-6312-4f36-b10a-3684d7f9f2bc,.cfe454b2-b1ec-4b7e-826a-682bf576c185,.d96369d9-d067-44d0-be49-7d49d48beef8,.dc75d8ed-619c-4d54-853f-f1088a09d15e{opacity:.5}.dc75d8ed-619c-4d54-853f-f1088a09d15e{fill:#05b0f1}.\31 592f216-7564-4a6d-817f-4693ddde3a5b,.\38 8d07bec-9b6e-4bc6-90ee-951bd1fb3ded{fill:#07d1e2}.\35 8a37d0e-6312-4f36-b10a-3684d7f9f2bc{fill:#ffa2f5}</style></defs><g id="376a37dc-b319-4c49-b344-d6d79428157b" data-name="Layer 2"><g id="92d3af1b-1d6f-4a92-bf05-d8ec6b469625" data-name="Layer 1"><path d="M994.72 232.23l-100.14 40.26v-80.94l100.14 40.68zm946.74 12.43l234.61-94.32v189.64l-234.61-95.32z" class="cfe454b2-b1ec-4b7e-826a-682bf576c185"/><path d="M309.67 1246.57l-67.78-168.58h136.27l-68.49 168.58z" class="dc75d8ed-619c-4d54-853f-f1088a09d15e"/><path d="M1603.08 812.61a16.76 16.76 0 0 1 12 4.58 15.18 15.18 0 0 1 4.81 11.47 14.93 14.93 0 0 1-4.85 11.42 17.24 17.24 0 0 1-12.23 4.52 16.26 16.26 0 0 1-11.74-4.52 15.07 15.07 0 0 1-4.7-11.33 15.41 15.41 0 0 1 4.73-11.56 16.5 16.5 0 0 1 11.98-4.58z" class="cfe454b2-b1ec-4b7e-826a-682bf576c185"/><path d="M1677.15 1205.76a12.22 12.22 0 0 1 8.77 3.34 11.07 11.07 0 0 1 3.5 8.36 10.88 10.88 0 0 1-3.54 8.32 12.57 12.57 0 0 1-8.92 3.3 11.85 11.85 0 0 1-8.56-3.3 11 11 0 0 1-3.42-8.26 11.23 11.23 0 0 1 3.45-8.43 12 12 0 0 1 8.72-3.33zM142.49 197.25a6.11 6.11 0 0 1 4.39 1.67 5.53 5.53 0 0 1 1.75 4.18 5.44 5.44 0 0 1-1.77 4.16 6.29 6.29 0 0 1-4.46 1.65 5.93 5.93 0 0 1-4.28-1.65 5.49 5.49 0 0 1-1.71-4.13 5.62 5.62 0 0 1 1.72-4.21 6 6 0 0 1 4.36-1.67z" class="1592f216-7564-4a6d-817f-4693ddde3a5b"/><path d="M388.55 307.75q10.66 0 17.74 6.75a22.38 22.38 0 0 1 7.09 16.91 22 22 0 0 1-7.15 16.83q-7.15 6.66-18 6.66a24 24 0 0 1-17.31-6.66 22.22 22.22 0 0 1-6.92-16.7 22.72 22.72 0 0 1 7-17q6.9-6.78 17.55-6.79zm1020.06-153.93a12.22 12.22 0 0 1 8.77 3.34 11.07 11.07 0 0 1 3.5 8.36 10.88 10.88 0 0 1-3.54 8.32 12.57 12.57 0 0 1-8.92 3.3 11.85 11.85 0 0 1-8.56-3.3 11 11 0 0 1-3.42-8.26 11.23 11.23 0 0 1 3.45-8.43 12 12 0 0 1 8.72-3.33z" class="58a37d0e-6312-4f36-b10a-3684d7f9f2bc"/><g class="d96369d9-d067-44d0-be49-7d49d48beef8"><path d="M2256 220.74l-130.26 52.08L2256 325.24v-104.5z" class="88d07bec-9b6e-4bc6-90ee-951bd1fb3ded"/><path d="M2256 325.01l-130.26 52.07L2256 429.5V325.01z" class="88d07bec-9b6e-4bc6-90ee-951bd1fb3ded"/></g><g class="d96369d9-d067-44d0-be49-7d49d48beef8"><path d="M576.89 217.67l65.13-26.04-65.13-26.21v52.25z" class="88d07bec-9b6e-4bc6-90ee-951bd1fb3ded"/><path d="M576.89 165.54l65.13-26.04-65.13-26.21v52.25z" class="88d07bec-9b6e-4bc6-90ee-951bd1fb3ded"/></g><path d="M459.74 959.21q12.73 0 21.2 8.06a26.75 26.75 0 0 1 8.47 20.21 26.31 26.31 0 0 1-8.55 20.12q-8.55 8-21.56 8-12.42 0-20.69-8a26.55 26.55 0 0 1-8.27-20q0-12.31 8.33-20.37t21.07-8.02zm.31 7.47q-9.43 0-15.5 5.9a20.09 20.09 0 0 0-6.07 15.06 19.74 19.74 0 0 0 6.09 14.79 22.61 22.61 0 0 0 30.59-.12 20.12 20.12 0 0 0 6.15-15 19.65 19.65 0 0 0-6.15-14.69 20.88 20.88 0 0 0-15.1-5.94z" class="dc75d8ed-619c-4d54-853f-f1088a09d15e"/><path d="M619.5 1238.37a22.42 22.42 0 0 1 16.09 6.12 20.3 20.3 0 0 1 6.43 15.34 20 20 0 0 1-6.49 15.27q-6.49 6-16.36 6a21.75 21.75 0 0 1-15.71-6 20.15 20.15 0 0 1-6.28-15.15 20.61 20.61 0 0 1 6.32-15.46q6.33-6.12 16-6.12zm.24 5.67a16.18 16.18 0 0 0-11.77 4.48 15.25 15.25 0 0 0-4.61 11.43 15 15 0 0 0 4.62 11.22 17.16 17.16 0 0 0 23.22-.09 15.27 15.27 0 0 0 4.67-11.37 14.91 14.91 0 0 0-4.67-11.15 15.85 15.85 0 0 0-11.46-4.56z" class="1592f216-7564-4a6d-817f-4693ddde3a5b"/><path d="M1222.99 1235.34v-9.98l-65.56-25.86v9.98l65.56 25.86zm0 47.99v-9.98l-65.56-25.87v9.99l65.56 25.86z" class="58a37d0e-6312-4f36-b10a-3684d7f9f2bc"/><path d="M1825.85 609.6h-12.13l-31.43 79.68h12.13l31.43-79.68zm58.33 0h-12.13l-31.44 79.68h12.13l31.44-79.68z" class="cfe454b2-b1ec-4b7e-826a-682bf576c185"/><path d="M1770.12 242.87v-8.45l-55.48-21.89v8.45l55.48 21.89zm0 40.61v-8.45l-55.48-21.88v8.44l55.48 21.89z" class="dc75d8ed-619c-4d54-853f-f1088a09d15e"/><path d="M88.25 544.07h145.21v145.21H88.25z" class="cfe454b2-b1ec-4b7e-826a-682bf576c185"/><path d="M1877.87 1051.53h113.07v113.07h-113.07z" class="cfe454b2-b1ec-4b7e-826a-682bf576c185" transform="rotate(135 1934.403 1108.062)"/><path d="M429.64 642.42h93.72v93.72h-93.72z" class="1592f216-7564-4a6d-817f-4693ddde3a5b" transform="rotate(135 476.504 689.283)"/><path d="M2099.4 872.16l-51.59-51.59L2099.4 769l51.6 51.57zm-31-51.59l31 31 31-31-31-31z" class="58a37d0e-6312-4f36-b10a-3684d7f9f2bc"/><path d="M1487.62 115.54L1603.16 0h-231.08l115.54 115.54z" class="1592f216-7564-4a6d-817f-4693ddde3a5b"/><path d="M434.57 0l-24.34 61.68h15.43L449.99 0h-15.42zm-74.14 0l-24.34 61.68h15.42L375.85 0h-15.42z" class="dc75d8ed-619c-4d54-853f-f1088a09d15e"/><path d="M1930.63 0l-21.21 21.21L1888.2 0h.01-14.1l35.31 35.3 35.3-35.3h-14.09zM2256 650.71h-.06a21 21 0 0 1-15.25-5.9 19.74 19.74 0 0 1-6.09-14.79 20.09 20.09 0 0 1 6.07-15.06q6-5.84 15.32-5.89v-7.48h-.14q-12.73 0-21.07 8.06t-8.31 20.35a26.55 26.55 0 0 0 8.27 20q8.27 8 20.69 8h.57zM0 333.12v15.08l22.7 22.7L0 393.6v15.08l37.78-37.78L0 333.12z" class="1592f216-7564-4a6d-817f-4693ddde3a5b"/></g></g></svg>